<svg xmlns="http://www.w3.org/2000/svg" width="409" height="120" viewBox="0 0 409 120" fill="none">
<path fill-rule="evenodd" clip-rule="evenodd" d="M21.6761 20.8596C9.70472 20.8596 0 30.5643 0 42.5357V77.4641C0 89.4354 9.70473 99.1402 21.6761 99.1402H57.3616C69.333 99.1402 79.0377 89.4354 79.0377 77.4641V42.5357C79.0377 30.5643 69.3329 20.8596 57.3616 20.8596H21.6761ZM24.7321 28.969C15.7536 28.969 8.47504 36.2476 8.47504 45.2261V74.4498C8.47504 83.4283 15.7536 90.7068 24.7321 90.7068H53.9565C62.935 90.7068 70.2135 83.4283 70.2135 74.4498V45.2261C70.2135 36.2475 62.935 28.969 53.9565 28.969H24.7321Z" fill="#6A6FCE"/>
<path d="M47.5831 57.3663C47.918 55.6355 50.395 55.6355 50.73 57.3664L51.9857 63.8562C52.1096 64.4967 52.6093 64.9981 53.2493 65.1241L59.7497 66.4046C61.4735 66.7442 61.4735 69.2098 59.7497 69.5494L53.2493 70.8299C52.6093 70.956 52.1096 71.4574 51.9857 72.0978L50.73 78.5877C50.395 80.3185 47.918 80.3185 47.5831 78.5877L46.3274 72.0978C46.2035 71.4574 45.7038 70.956 45.0637 70.8299L38.5634 69.5494C36.8396 69.2098 36.8396 66.7442 38.5634 66.4046L45.0637 65.1241C45.7038 64.9981 46.2035 64.4967 46.3274 63.8562L47.5831 57.3663Z" fill="#6A6FCE"/>
<path d="M133.838 94.0027C128.824 94.0027 125.014 92.6323 122.407 89.8916C119.8 87.084 118.496 82.9395 118.496 77.4581V49.8837H112.179V42.1629H114.185C116.925 41.8955 118.897 41.0599 120.101 39.6561C121.304 38.1855 122.006 36.0464 122.206 33.2388L122.607 29.5288H129.326V40.9597H142.561V50.0843H129.326V76.7562C129.326 79.3632 129.927 81.2684 131.13 82.4716C132.334 83.6749 133.971 84.2765 136.044 84.2765C137.113 84.2765 138.25 84.1094 139.453 83.7751C140.656 83.4409 141.692 82.9395 142.561 82.2711V92.3984C140.957 92.9332 139.453 93.3342 138.049 93.6016C136.645 93.869 135.241 94.0027 133.838 94.0027ZM145.556 93V67.3308L145.456 40.9597H155.383L154.28 64.2224H155.182C155.583 58.4736 156.385 53.7943 157.588 50.1845C158.859 46.5748 160.496 43.9343 162.502 42.2632C164.507 40.592 166.813 39.7564 169.42 39.7564C170.423 39.7564 171.493 39.8901 172.629 40.1575C173.765 40.4249 174.868 40.826 175.938 41.3607L175.336 53.0924C174.133 52.4908 172.963 52.0897 171.827 51.8891C170.69 51.6217 169.621 51.4881 168.618 51.4881C166.078 51.4881 163.905 52.3905 162.101 54.1954C160.296 56.0002 158.892 58.6407 157.889 62.1167C156.953 65.5928 156.485 69.8041 156.485 74.7508V93H145.556ZM194.915 94.3035C188.899 94.3035 184.487 92.1644 181.679 87.8862C178.872 83.5412 177.468 76.8565 177.468 67.8321V40.9597H188.498V67.7319C188.498 73.7481 189.233 78.0597 190.704 80.6667C192.241 83.2069 194.714 84.477 198.124 84.477C200.263 84.477 202.168 83.9757 203.839 82.973C205.51 81.9703 206.914 80.4328 208.05 78.3605C209.254 76.2214 210.156 73.5475 210.758 70.3389C211.359 67.0634 211.66 63.1528 211.66 58.6072V40.9597H222.59V67.1302L222.69 93H212.863L213.966 71.2413H213.164C212.562 76.5891 211.526 80.9676 210.056 84.3767C208.585 87.7859 206.58 90.2927 204.039 91.897C201.566 93.5014 198.525 94.3035 194.915 94.3035ZM227.325 107.138L227.425 62.8186L227.325 40.9597H237.352L236.45 57.8051H237.252C238.054 53.46 239.291 49.9506 240.962 47.2767C242.633 44.6028 244.672 42.6643 247.078 41.461C249.485 40.1909 252.192 39.5559 255.2 39.5559C259.144 39.5559 262.62 40.5586 265.628 42.564C268.636 44.5025 270.976 47.4772 272.647 51.4881C274.385 55.4989 275.254 60.5792 275.254 66.7292C275.254 72.9459 274.385 78.0931 272.647 82.1708C270.909 86.2485 268.536 89.29 265.528 91.2954C262.587 93.3008 259.244 94.3035 255.501 94.3035C252.092 94.3035 249.15 93.5348 246.677 91.9973C244.204 90.4598 242.165 88.2204 240.561 85.2792C239.023 82.3379 237.987 78.7616 237.452 74.5502H236.45C236.851 77.291 237.185 79.8312 237.452 82.1708C237.72 84.5104 237.92 86.7164 238.054 88.7886C238.254 90.7941 238.355 92.6992 238.355 94.5041V107.138H227.325ZM251.991 84.8781C254.532 84.8781 256.704 84.1428 258.509 82.6721C260.381 81.2015 261.785 79.1293 262.72 76.4554C263.723 73.7815 264.224 70.6063 264.224 66.9297C264.224 63.4537 263.757 60.3787 262.821 57.7048C261.885 55.0309 260.514 52.9587 258.71 51.4881C256.905 49.9506 254.665 49.1818 251.991 49.1818C249.786 49.1818 247.814 49.6832 246.076 50.6859C244.404 51.6217 243.001 52.8918 241.864 54.4962C240.728 56.1005 239.859 57.9054 239.257 59.9108C238.722 61.8493 238.455 63.8547 238.455 65.927V66.8294C238.455 68.3001 238.622 69.871 238.956 71.5421C239.291 73.1465 239.792 74.7508 240.46 76.3551C241.129 77.8926 241.998 79.3298 243.067 80.6667C244.137 81.9368 245.407 82.973 246.878 83.7751C248.348 84.5104 250.053 84.8781 251.991 84.8781ZM302.406 94.3035C298.127 94.3035 294.384 93.6685 291.175 92.3984C288.033 91.0614 285.426 89.1897 283.354 86.7832C281.282 84.3767 279.744 81.5692 278.742 78.3605C277.739 75.085 277.238 71.5087 277.238 67.6316C277.238 63.8213 277.706 60.245 278.641 56.9027C279.644 53.4935 281.148 50.4853 283.154 47.8783C285.159 45.2713 287.699 43.2325 290.774 41.7618C293.849 40.2912 297.459 39.5559 301.603 39.5559C305.481 39.5559 308.856 40.2243 311.731 41.5613C314.672 42.8982 317.078 44.8034 318.95 47.2767C320.889 49.6832 322.226 52.591 322.961 56.0002C323.763 59.4094 323.93 63.1863 323.462 67.3308L283.956 68.0327V61.114L315.34 60.6127L313.335 64.5232C313.536 61.3146 313.235 58.5404 312.433 56.2008C311.63 53.7943 310.327 51.956 308.522 50.6859C306.784 49.3489 304.478 48.6805 301.603 48.6805C298.528 48.6805 295.955 49.4492 293.883 50.9867C291.877 52.5242 290.373 54.6967 289.37 57.5043C288.368 60.3118 287.866 63.5539 287.866 67.2305C287.866 73.2467 289.136 77.8257 291.677 80.9676C294.217 84.1094 297.893 85.6803 302.706 85.6803C305.046 85.6803 306.985 85.3126 308.522 84.5773C310.126 83.842 311.396 82.9061 312.332 81.7697C313.268 80.5665 313.903 79.263 314.237 77.8592C314.572 76.4554 314.705 75.085 314.639 73.7481L324.766 74.45C324.833 77.1239 324.432 79.664 323.563 82.0705C322.694 84.4102 321.323 86.5158 319.452 88.3876C317.647 90.1924 315.307 91.6296 312.433 92.6992C309.625 93.7687 306.283 94.3035 302.406 94.3035ZM351.174 94.3035C346.896 94.3035 343.152 93.6685 339.944 92.3984C336.802 91.0614 334.195 89.1897 332.122 86.7832C330.05 84.3767 328.513 81.5692 327.51 78.3605C326.507 75.085 326.006 71.5087 326.006 67.6316C326.006 63.8213 326.474 60.245 327.41 56.9027C328.412 53.4935 329.916 50.4853 331.922 47.8783C333.927 45.2713 336.467 43.2325 339.542 41.7618C342.617 40.2912 346.227 39.5559 350.372 39.5559C354.249 39.5559 357.625 40.2243 360.499 41.5613C363.44 42.8982 365.847 44.8034 367.718 47.2767C369.657 49.6832 370.994 52.591 371.729 56.0002C372.531 59.4094 372.699 63.1863 372.231 67.3308L332.724 68.0327V61.114L364.109 60.6127L362.103 64.5232C362.304 61.3146 362.003 58.5404 361.201 56.2008C360.399 53.7943 359.095 51.956 357.29 50.6859C355.552 49.3489 353.246 48.6805 350.372 48.6805C347.297 48.6805 344.723 49.4492 342.651 50.9867C340.645 52.5242 339.141 54.6967 338.139 57.5043C337.136 60.3118 336.635 63.5539 336.635 67.2305C336.635 73.2467 337.905 77.8257 340.445 80.9676C342.985 84.1094 346.662 85.6803 351.475 85.6803C353.814 85.6803 355.753 85.3126 357.29 84.5773C358.895 83.842 360.165 82.9061 361.101 81.7697C362.036 80.5665 362.671 79.263 363.006 77.8592C363.34 76.4554 363.474 75.085 363.407 73.7481L373.534 74.45C373.601 77.1239 373.2 79.664 372.331 82.0705C371.462 84.4102 370.091 86.5158 368.22 88.3876C366.415 90.1924 364.075 91.6296 361.201 92.6992C358.393 93.7687 355.051 94.3035 351.174 94.3035ZM376.276 93V67.3308L376.176 40.9597H386.102L384.999 64.2224H385.902C386.303 58.4736 387.105 53.7943 388.308 50.1845C389.578 46.5748 391.216 43.9343 393.222 42.2632C395.227 40.592 397.533 39.7564 400.14 39.7564C401.143 39.7564 402.212 39.8901 403.349 40.1575C404.485 40.4249 405.588 40.826 406.658 41.3607L406.056 53.0924C404.853 52.4908 403.683 52.0897 402.547 51.8891C401.41 51.6217 400.341 51.4881 399.338 51.4881C396.798 51.4881 394.625 52.3905 392.82 54.1954C391.016 56.0002 389.612 58.6407 388.609 62.1167C387.673 65.5928 387.205 69.8041 387.205 74.7508V93H376.276Z" fill="#6A6FCE"/>
</svg>