<svg width="325" height="123" viewBox="0 0 325 123" fill="none" xmlns="http://www.w3.org/2000/svg">
<g clip-path="url(#clip0_935_27)">
<path d="M24.973 96.497C19.805 96.497 15.929 95.069 13.345 92.213C10.761 89.357 9.46904 85.039 9.46904 79.259V51.413H2.22704V42.947H6.10304C8.34704 42.811 9.94504 42.267 10.897 41.315C11.917 40.363 12.563 38.833 12.835 36.725L13.549 30.605H20.281V42.335H34.459V51.617H20.281V78.749C20.281 81.401 20.893 83.339 22.117 84.563C23.341 85.719 25.075 86.297 27.319 86.297C28.543 86.297 29.801 86.161 31.093 85.889C32.385 85.549 33.575 84.971 34.663 84.155V94.763C32.827 95.375 31.093 95.817 29.461 96.089C27.829 96.361 26.333 96.497 24.973 96.497ZM39.9957 95.375V68.345V42.335H49.7877L48.9717 62.939H50.3997C50.9437 58.043 51.8617 53.997 53.1537 50.801C54.4457 47.605 56.1457 45.191 58.2537 43.559C60.4297 41.927 63.0137 41.111 66.0057 41.111C66.8897 41.111 67.8077 41.213 68.7597 41.417C69.7117 41.553 70.7317 41.825 71.8197 42.233L71.2077 54.065C70.1197 53.589 68.9977 53.249 67.8417 53.045C66.7537 52.773 65.7337 52.637 64.7817 52.637C62.1297 52.637 59.8517 53.487 57.9477 55.187C56.0437 56.819 54.5137 59.165 53.3577 62.225C52.2697 65.217 51.5217 68.821 51.1137 73.037V95.375H39.9957ZM93.1967 96.701C87.1447 96.701 82.6227 94.593 79.6307 90.377C76.7067 86.161 75.2447 79.701 75.2447 70.997V42.335H86.3627V70.283C86.3627 76.063 87.1787 80.313 88.8107 83.033C90.4427 85.685 93.0607 87.011 96.6647 87.011C98.7047 87.011 100.541 86.501 102.173 85.481C103.805 84.461 105.199 82.965 106.355 80.993C107.579 79.021 108.531 76.641 109.211 73.853C109.891 70.997 110.299 67.733 110.435 64.061V42.335H121.553V71.609V95.375H111.863L112.679 76.301H111.353C110.605 81.061 109.449 84.937 107.885 87.929C106.321 90.921 104.315 93.131 101.867 94.559C99.4867 95.987 96.5967 96.701 93.1967 96.701ZM130.15 111.185V67.223V42.335H139.942L139.432 57.635L140.656 57.737C141.472 54.065 142.662 51.005 144.226 48.557C145.79 46.041 147.762 44.171 150.142 42.947C152.522 41.655 155.31 41.009 158.506 41.009C162.994 41.009 166.836 42.131 170.032 44.375C173.228 46.619 175.676 49.815 177.376 53.963C179.076 58.111 179.926 63.075 179.926 68.855C179.926 74.567 179.076 79.531 177.376 83.747C175.676 87.895 173.262 91.091 170.134 93.335C167.074 95.579 163.368 96.701 159.016 96.701C155.48 96.701 152.488 95.953 150.04 94.457C147.592 92.961 145.62 90.887 144.124 88.235C142.628 85.515 141.506 82.421 140.758 78.953H139.228C139.636 81.197 139.976 83.407 140.248 85.583C140.588 87.691 140.826 89.731 140.962 91.703C141.166 93.675 141.268 95.545 141.268 97.313V111.185H130.15ZM155.65 87.317C158.37 87.317 160.682 86.535 162.586 84.971C164.49 83.407 165.952 81.265 166.972 78.545C167.992 75.757 168.502 72.527 168.502 68.855C168.502 65.183 167.992 61.987 166.972 59.267C165.952 56.547 164.49 54.439 162.586 52.943C160.682 51.447 158.37 50.699 155.65 50.699C153.27 50.699 151.196 51.209 149.428 52.229C147.66 53.249 146.164 54.609 144.94 56.309C143.716 58.009 142.798 59.879 142.186 61.919C141.574 63.959 141.268 65.999 141.268 68.039V69.263C141.268 70.691 141.438 72.221 141.778 73.853C142.186 75.485 142.764 77.083 143.512 78.647C144.26 80.211 145.178 81.673 146.266 83.033C147.422 84.325 148.782 85.379 150.346 86.195C151.91 86.943 153.678 87.317 155.65 87.317ZM210.1 96.701C205.748 96.701 201.94 96.055 198.676 94.763C195.48 93.471 192.794 91.635 190.618 89.255C188.442 86.875 186.776 84.053 185.62 80.789C184.532 77.457 183.988 73.751 183.988 69.671C183.988 65.659 184.532 61.919 185.62 58.451C186.708 54.915 188.306 51.855 190.414 49.271C192.522 46.687 195.14 44.681 198.268 43.253C201.464 41.757 205.102 41.009 209.182 41.009C212.99 41.009 216.356 41.655 219.28 42.947C222.272 44.239 224.754 46.143 226.726 48.659C228.766 51.107 230.228 54.133 231.112 57.737C232.064 61.341 232.37 65.455 232.03 70.079L191.026 70.589V63.653L224.788 63.245L221.626 67.325C221.966 63.585 221.626 60.457 220.606 57.941C219.654 55.357 218.192 53.419 216.22 52.127C214.316 50.835 211.97 50.189 209.182 50.189C206.19 50.189 203.606 50.971 201.43 52.535C199.254 54.099 197.588 56.309 196.432 59.165C195.344 62.021 194.8 65.455 194.8 69.467C194.8 75.519 196.126 80.143 198.778 83.339C201.43 86.467 205.238 88.031 210.202 88.031C212.446 88.031 214.316 87.725 215.812 87.113C217.376 86.501 218.634 85.685 219.586 84.665C220.606 83.645 221.388 82.523 221.932 81.299C222.476 80.007 222.816 78.681 222.952 77.321L232.948 78.953C232.608 81.537 231.894 83.917 230.806 86.093C229.718 88.201 228.222 90.071 226.318 91.703C224.414 93.267 222.102 94.491 219.382 95.375C216.73 96.259 213.636 96.701 210.1 96.701ZM262.399 96.701C258.047 96.701 254.239 96.055 250.975 94.763C247.779 93.471 245.093 91.635 242.917 89.255C240.741 86.875 239.075 84.053 237.919 80.789C236.831 77.457 236.287 73.751 236.287 69.671C236.287 65.659 236.831 61.919 237.919 58.451C239.007 54.915 240.605 51.855 242.713 49.271C244.821 46.687 247.439 44.681 250.567 43.253C253.763 41.757 257.401 41.009 261.481 41.009C265.289 41.009 268.655 41.655 271.579 42.947C274.571 44.239 277.053 46.143 279.025 48.659C281.065 51.107 282.527 54.133 283.411 57.737C284.363 61.341 284.669 65.455 284.329 70.079L243.325 70.589V63.653L277.087 63.245L273.925 67.325C274.265 63.585 273.925 60.457 272.905 57.941C271.953 55.357 270.491 53.419 268.519 52.127C266.615 50.835 264.269 50.189 261.481 50.189C258.489 50.189 255.905 50.971 253.729 52.535C251.553 54.099 249.887 56.309 248.731 59.165C247.643 62.021 247.099 65.455 247.099 69.467C247.099 75.519 248.425 80.143 251.077 83.339C253.729 86.467 257.537 88.031 262.501 88.031C264.745 88.031 266.615 87.725 268.111 87.113C269.675 86.501 270.933 85.685 271.885 84.665C272.905 83.645 273.687 82.523 274.231 81.299C274.775 80.007 275.115 78.681 275.251 77.321L285.247 78.953C284.907 81.537 284.193 83.917 283.105 86.093C282.017 88.201 280.521 90.071 278.617 91.703C276.713 93.267 274.401 94.491 271.681 95.375C269.029 96.259 265.935 96.701 262.399 96.701ZM290.732 95.375V68.345V42.335H300.524L299.708 62.939H301.136C301.68 58.043 302.598 53.997 303.89 50.801C305.182 47.605 306.882 45.191 308.99 43.559C311.166 41.927 313.75 41.111 316.742 41.111C317.626 41.111 318.544 41.213 319.496 41.417C320.448 41.553 321.468 41.825 322.556 42.233L321.944 54.065C320.856 53.589 319.734 53.249 318.578 53.045C317.49 52.773 316.47 52.637 315.518 52.637C312.866 52.637 310.588 53.487 308.684 55.187C306.78 56.819 305.25 59.165 304.094 62.225C303.006 65.217 302.258 68.821 301.85 73.037V95.375H290.732Z" fill="#6F66C5"/>
</g>
<defs>
<clipPath id="clip0_935_27">
<rect width="323.625" height="122.25" fill="white" transform="translate(0.5625 0.375)"/>
</clipPath>
</defs>
</svg>
